<?xml version="1.0" encoding="utf-8"?>
<!-- Generator: Adobe Illustrator 25.2.0, SVG Export Plug-In . SVG Version: 6.00 Build 0)  -->
<svg version="1.0" id="Camada_1" xmlns="http://www.w3.org/2000/svg" xmlns:xlink="http://www.w3.org/1999/xlink" x="0px" y="0px"
	 viewBox="0 0 2896.85 952.71" style="enable-background:new 0 0 2896.85 952.71;" xml:space="preserve">
<style type="text/css">
	.st0{fill:#FFFFFF;}
</style>
<g>
	<path class="st0" d="M1908.19,355.17v310.38h77.64v-91.1h73.22c22.19,0,41.73-4.58,58.6-13.74c16.88-9.16,29.77-21.89,38.77-38.32
		c8.99-16.36,13.51-35.19,13.51-56.41c0-33.07-9.28-59.82-27.7-80.21c-18.49-20.44-45.59-30.61-81.22-30.61H1908.19L1908.19,355.17z
		 M2041.74,514.68h-55.91v-99.75h58.32c15.75,0,27.48,4.3,35.18,13.01c7.72,8.66,11.57,21.17,11.57,37.59
		c0,15.08-4.2,27.09-12.58,35.91C2070.01,510.27,2057.77,514.68,2041.74,514.68L2041.74,514.68z M2261.03,355.17l-118.58,310.38
		h80.99l27.48-70.38h103.61l27.93,70.38h80.99l-118.58-310.38H2261.03L2261.03,355.17z M2343.91,537.8h-82.45l41.01-107.96
		L2343.91,537.8L2343.91,537.8z M2549.22,551.32v114.22h78.09V551.32l111.31-196.16h-80.94l-69.42,128.69l-69.42-128.69h-80.94
		L2549.22,551.32"/>
	<path class="st0" d="M1500.85,615.61v52.56h318.81v-86.91h-167.45c7.94-11.67,17.49-22.84,28.71-33.62
		c11.23-10.72,26.87-24.74,46.97-42l11.9-10.5c26.59-23.4,45.86-44.96,57.82-64.85c11.9-19.83,17.87-42.62,17.87-68.31
		c0-48.09-13.91-85.46-41.72-112.1c-27.76-26.64-67.86-39.94-120.14-39.94c-23.85,0-47.98,1.96-72.56,5.98
		c-24.52,3.96-46.08,9.44-64.79,16.42v97.41c38.77-15.42,75.46-23.12,110.04-23.12c49.49,0,74.23,19.16,74.23,57.47
		c0,13.52-2.18,25.19-6.65,35.02c-4.41,9.83-11.05,19.27-19.94,28.37c-8.88,9.1-23.85,23.24-44.84,42.39l-14.75,13.29
		c-28.93,26.19-52.28,48.93-70.04,68.31S1512.08,592.27,1500.85,615.61"/>
	<path class="st0" d="M412.92,621.67c20.5-25.64,30.77-64.4,30.77-116.34c0-55.07-11.62-95.45-34.85-121.09
		c-23.24-25.64-59.21-38.43-107.85-38.43c-48.7,0-84.67,12.79-107.91,38.43c-23.24,25.64-34.85,66.02-34.85,121.09
		c0,51.27,9.94,89.64,29.83,115.11c19.83,25.47,50.43,39.99,91.77,43.51c0.95,52.56,23.07,78.81,66.3,78.81
		c15.08,0,28.99-1.79,41.83-5.31v-33.12c-11.23,3.18-22.56,4.8-34.13,4.8c-13.46,0-22.68-3.24-27.65-9.61
		c-4.97-6.42-7.6-18.15-7.93-35.13C360.87,661.55,392.42,647.31,412.92,621.67L412.92,621.67z M393.26,431.6
		c7.32,18.43,11,43.01,11,73.73c0,30.77-3.69,55.35-11,73.78c-7.37,18.43-18.6,31.73-33.68,39.88
		c-15.03,8.21-34.57,12.29-58.59,12.29c-24.07,0-43.62-4.08-58.65-12.29c-15.08-8.15-26.31-21.45-33.62-39.88
		c-7.37-18.43-11.06-43.01-11.06-73.78c0-30.72,3.69-55.3,11.06-73.73c7.32-18.43,18.54-31.72,33.62-39.88
		c15.03-8.21,34.57-12.29,58.65-12.29c24.02,0,43.56,4.08,58.59,12.29C374.66,399.88,385.89,413.17,393.26,431.6L393.26,431.6z
		 M648.18,610.11c-15.53,14.13-37.87,21.17-67.02,21.17c-29.16,0-51.61-7.04-67.3-21.17c-15.7-14.08-23.51-35.08-23.51-62.95V350.62
		H450.9v196.05c0,38.48,11.11,67.81,33.4,87.97c22.29,20.16,54.57,30.27,96.85,30.27c41.95,0,74.06-10.11,96.35-30.27
		c22.29-20.16,33.4-49.49,33.4-87.97V350.62h-39.43v196.55C671.47,575.03,663.7,596.03,648.18,610.11L648.18,610.11z M727.71,350.62
		V660.1h209.06v-30.78H767.14V520.74h152.31v-30.78H767.14V381.84h169.63v-31.22H727.71L727.71,350.62z M1161.19,503.65
		c11.22-14.86,16.81-33.85,16.81-56.91c0-30.44-7.82-54.07-23.57-70.88c-15.7-16.81-39.71-25.25-72.05-25.25h-136V660.1h39.37
		V543.31h65.41c14.07,0,24.24,1.95,30.49,5.75c6.26,3.85,11.62,10.89,16.09,21.17l39.43,89.87h40.33l-40.33-93.22
		c-4.19-9.33-7.88-16.25-11.06-20.89c-3.24-4.69-7.87-8.77-13.96-12.29C1133.65,528.56,1149.96,518.57,1161.19,503.65
		L1161.19,503.65z M1138.62,446.74c0,43.9-22.45,65.85-67.3,65.85h-85.57V381.84h90.87
		C1117.96,381.84,1138.62,403.45,1138.62,446.74L1138.62,446.74z M1421.41,626.47c23.23-25.64,34.85-66.02,34.85-121.14
		c0-55.07-11.62-95.45-34.85-121.09c-23.24-25.64-59.21-38.43-107.91-38.43c-48.65,0-84.62,12.79-107.85,38.43
		c-23.24,25.64-34.86,66.02-34.86,121.09c0,55.13,11.62,95.51,34.86,121.14c23.23,25.64,59.2,38.43,107.85,38.43
		C1362.2,664.9,1398.17,652.11,1421.41,626.47L1421.41,626.47z M1405.77,431.6c7.37,18.43,11.06,43.01,11.06,73.73
		c0,30.77-3.69,55.35-11.06,73.78c-7.32,18.43-18.55,31.73-33.63,39.88c-15.02,8.21-34.57,12.29-58.64,12.29
		c-24.02,0-43.57-4.08-58.59-12.29c-15.08-8.15-26.31-21.45-33.68-39.88c-7.32-18.43-11-43.01-11-73.78c0-30.72,3.68-55.3,11-73.73
		c7.37-18.43,18.6-31.72,33.68-39.88c15.02-8.21,34.57-12.29,58.59-12.29c24.07,0,43.62,4.08,58.64,12.29
		C1387.22,399.88,1398.45,413.17,1405.77,431.6"/>
</g>
</svg>
